PathFileType	4	(X/Y/Z)	C:/Users/beibeiliu/ov580/test_trc/User2\sequence.8_training_dense_left.trc
DataRate	CameraRate	NumFrames	NumMarkers	Units	OrigDataRate	OrigDataStartFrame	OrigNumFrames
120	120	9	19	mm	120	1	117
Frame#	Time	ThumbCMC			ThumbMCP			ThumbIP			ThumbTip			IndexMCP			IndexPIP			IndexTip			MiddleMCP			MiddlePIP			MiddleTip			RingMCP			RingPIP			RingTip			PinkyMCP			PinkyPIP			PinkyTip			BackHand1			BackHand2			BackHand3	
		X0	Y0	Z0	X1	Y1	Z1	X2	Y2	Z2	X3	Y3	Z3	X4	Y4	Z4	X5	Y5	Z5	X6	Y6	Z6	X7	Y7	Z7	X8	Y8	Z8	X9	Y9	Z9	X10	Y10	Z10	X11	Y11	Z11	X12	Y12	Z12	X13	Y13	Z13	X14	Y14	Z14	X15	Y15	Z15	X16	Y16	Z16	X17	Y17	Z17	X18	Y18	Z18	
0	0	-266.22	61.1213	-4.55575	-265.351	81.8953	-32.7804	-265.529	96.4628	-66.3888	-247.772	82.1807	-94.6636	-280.073	14.7228	-75.4942	-278.271	20.0046	-108.204	-252.043	48.381	-116.784	-265.865	-6.42499	-81.2756	-257.842	-3.00457	-117.981	-233.659	27.515	-126.616	-243.949	-15.991	-79.6047	-237.326	-14.611	-108.402	-220.675	14.0382	-122.68	-210.392	-16.0667	-69.4403	-201.108	-11.123	-96.6187	-195.497	14.2661	-115.277	-239.541	-8.16821	-24.4564	-234.35	-3.80883	13.1149	-265.288	14.4069	-6.48014	
1	0.00833333	-261.714	61.6832	-10.5245	-259.314	82.0487	-39.0984	-255.129	89.9387	-71.3228	-244.028	76.9271	-99.1193	-291.536	16.8569	-76.0974	-287.453	21.2475	-110.516	-257.658	42.7093	-116.771	-284.905	-6.48054	-81.3113	-280.687	-6.12123	-114.715	-248.827	19.0096	-126.808	-260.592	-22.4459	-76.7327	-260.041	-18.7263	-108.227	-235.743	8.74629	-124.817	-231.644	-22.8716	-68.086	-222.25	-20.7184	-104.421	-211.792	-0.224548	-119.158	-248.738	-11.1957	-22.2575	-245.675	-6.43797	9.3737	-271.959	17.9955	-8.94654	
2	0.0166667	-255.828	63.1933	-12.5026	-249.622	80.0804	-41.1758	-246.502	89.0232	-80.4889	-238.936	74.1744	-100.874	-303.725	27.3266	-78.5874	-298.714	25.7987	-107.859	-269.486	42.3238	-118.728	-297.438	-2.62149	-75.618	-297.579	-2.55947	-112.754	-266.121	15.9218	-127.291	-280.861	-16.2605	-73.1561	-278.719	-16.9716	-109.533	-252.54	1.18392	-124.301	-251.643	-29.6405	-68.8043	-245.722	-29.0748	-103.364	-231.409	-8.54518	-118.346	-261.064	-12.43	-22.7034	-253.594	-5.16032	7.65443	-274.386	21.5124	-6.97824	
3	0.025	-250.323	66.9174	-19.2481	-239.161	77.295	-47.1075	-233.53	84.5555	-81.6554	-229.989	71.2966	-104.978	-305.826	38.8246	-76.7571	-303.401	43.5284	-109.816	-272.794	42.44	-118.59	-307.105	12.2367	-72.9151	-309.1	9.68755	-112.487	-274.368	17.923	-126.99	-296.781	-6.95583	-73.227	-297.006	-9.30455	-106.71	-272.974	3.10665	-123.621	-269.837	-21.8667	-67.0295	-271.802	-24.2011	-102.071	-251.414	-11.7065	-121.298	-272.18	-6.40699	-26.254	-261.161	-6.5389	5.69041	-277.934	29.2004	-9.94772	
4	0.0333333	-237.599	64.2978	-15.3403	-225.328	76.9211	-48.9551	-216.583	83.6192	-81.4295	-219.552	67.7882	-108.543	-299.85	62.4497	-70.6828	-302.602	65.3065	-103.468	-270.985	61.124	-119.831	-314.561	36.3904	-73.5391	-313.767	36.2463	-110.992	-283.28	34.2328	-127.787	-304.708	8.20344	-70.8259	-308.854	13.9982	-105.108	-278.832	16.375	-123.118	-285.833	-14.2333	-67.3872	-290.294	-8.42853	-98.052	-268.263	-2.57799	-120.667	-280.919	3.72661	-24.6613	-269.688	6.4642	5.00132	-274.659	39.1762	-9.55723	
5	0.0416667	-224.327	63.8241	-15.9943	-208.297	70.2727	-45.3126	-201.946	73.4994	-81.5757	-208.125	61.8693	-107.246	-281.426	87.2347	-62.6367	-285.167	91.4212	-98.5472	-260.715	81.3642	-116.412	-306.713	63.7534	-66.6366	-310.924	71.5262	-101.171	-283.467	57.4035	-124.589	-307.585	36.8224	-65.746	-312.144	43.7518	-99.4716	-287.368	39.038	-119.674	-297.067	12.1417	-61.5917	-304.037	19.347	-90.7197	-283.066	18.0215	-115.572	-281.724	23.5056	-18.9248	-272.249	15.718	8.39376	-264.418	54.4255	-4.28482	
6	0.05	-207.293	59.3462	-12.721	-190.561	60.0566	-44.2726	-185.017	58.1654	-75.617	-197.439	52.7615	-101.972	-259.741	104.454	-59.0417	-256.599	116.204	-85.2742	-243.64	97.6641	-111.886	-288.234	91.8558	-57.4192	-291.131	106.03	-87.5199	-271.651	88.0893	-120.252	-294.191	67.8273	-56.5095	-302.979	77.9771	-87.9157	-278.943	67.8734	-116.107	-299.579	37.2125	-56.2661	-304.867	49.7016	-88.8227	-288.34	45.3619	-112.376	-275.573	40.8854	-15.6451	-271.438	27.5565	13.0639	-252.75	61.1939	1.94416	
7	0.0583333	-195.046	48.362	-7.02176	-179.446	45.7945	-40.2876	-173.917	48.0976	-78.5982	-189.118	45.1236	-103.532	-232.915	110.48	-52.4921	-227.312	122.427	-84.0054	-223.714	105.189	-109.407	-262.854	107.648	-50.4521	-265.334	123.704	-80.3472	-249.626	105.783	-115.694	-277.913	87.2927	-50.422	-286.541	99.9578	-80.8802	-271.011	87.9434	-108.935	-293.092	60.4084	-51.2902	-296.499	73.3877	-78.6452	-282.207	66.2665	-109.324	-271.712	50.9909	-12.415	-266.077	39.3728	14.4482	-236.129	67.5052	4.75018	
8	0.0666667	-186.764	39.8297	-8.35266	-172.545	35.3536	-40.3901	-169.21	35.0514	-73.7943	-185.558	37.7084	-100.273	-210.64	105.518	-49.7539	-204.776	119.3	-83.2794	-198.476	99.4249	-110.99	-239.689	108.407	-46.943	-242.514	127.175	-82.5387	-233.41	108.852	-113.89	-261.694	95.8127	-48.7214	-265.595	110.314	-77.3494	-250.676	95.2047	-108.148	-279.607	67.4138	-46.6113	-282.139	85.5953	-74.1421	-273.093	78.2854	-105.754	-257.987	59.4094	-11.8599	-257.169	43.1708	18.3621	-223.081	63.5323	5.09245	
